<?xml version="1.0" encoding="utf-8"?>
<!-- Svg Vector Icons : http://www.onlinewebfonts.com/icon -->
<!DOCTYPE svg PUBLIC "-//W3C//DTD SVG 1.1//EN" "http://www.w3.org/Graphics/SVG/1.1/DTD/svg11.dtd">
<svg version="1.1" xmlns="http://www.w3.org/2000/svg" xmlns:xlink="http://www.w3.org/1999/xlink" x="0px" y="0px" viewBox="0 0 256 256" enable-background="new 0 0 256 256" xml:space="preserve">
<metadata> Svg Vector Icons : http://www.onlinewebfonts.com/icon </metadata>
<g><g><g><path fill="#000000" d="M192.1,2.3c-12.6,2.3-23.8,9.7-31,20.4c-3.5,5.3-5.5,10.1-7,16.7c-0.5,2.5-1,4.6-1.1,4.6c-0.1,0.1-2.3-0.5-5-1.4c-10.1-3.2-16.6-3.9-31.4-3.9c-11.8,0.1-14.8,0.3-20.4,1.5c-10,2.2-17.7,4.9-26.9,9.5c-11.1,5.5-19,11.3-28,20.3c-9,9-14.8,16.9-20.3,28c-4.6,9.2-7.3,16.9-9.5,26.9c-1.3,5.7-1.4,8.4-1.4,21.4c0,12.9,0.2,15.7,1.4,21.2c6.4,28.9,22.4,52.6,45.9,68.3c30.9,20.7,70.4,24.1,104.3,8.8c28.7-12.8,50.7-38,59.3-68c6.1-20.7,5.8-41.2-0.7-63.9c-0.8-2.6-0.7-2.6,4.3-11.3c7.2-12.4,15.9-30.3,18.3-37.6c2.9-8.8,3.7-15.2,2.8-21.6c-1.6-10.8-5.9-19.3-13.3-26.9C224.1,7.2,213.6,2.5,201.9,2C198.4,1.8,194,1.9,192.1,2.3z M211.1,13.9c15.2,5.2,25.8,20.8,24.5,36.1c-1,11.3-10.4,31.4-28.5,60.6c-3.7,6-7.1,10.9-7.5,10.8c-0.8-0.3-9.8-14.6-15.7-24.7c-13.5-23.5-20.3-40-20.3-49.5c0-8.3,4.1-17.9,10.4-24.3c5.2-5.2,11.6-8.8,18.9-10.4C197.1,11.6,206.7,12.3,211.1,13.9z M112.1,70.6v21.9H96c-8.8,0-16.1-0.2-16.1-0.5c0-0.8,6.6-12.1,10.5-17.9c7.3-11,19.1-25.5,20.7-25.5C111.9,48.7,112.1,51.8,112.1,70.6z M140,50.9c2.1,0.6,6.1,1.7,8.8,2.6l4.8,1.5l2.4,7.6c1.3,4.1,4.8,12.6,7.9,18.6l5.4,11.1h-3.5c-2.8,0-3.6-0.3-3.9-1.2c-0.8-2.3-8.1-15.1-11.4-20.3c-1.9-2.9-5.7-8.3-8.5-12.1c-2.8-3.7-5.5-7.3-5.9-7.9C135,49.7,135.1,49.7,140,50.9z M94,51.5c0,0.1-2.8,4-6.3,8.6c-6.5,8.6-12.1,17.7-17,27L68,92.5H52c-8.8,0-16-0.2-16-0.5c0-0.2,1.2-1.9,2.6-3.8C51,71.7,67,60.1,86.3,53.4C92.2,51.4,94,51,94,51.5z M130.2,60.5c2.8,3.5,7.1,9.3,9.5,12.9c4.3,6.4,11,17.7,11,18.6c0,0.3-6.4,0.5-14.2,0.5h-14.2V71.7l0.1-20.7l1.4,1.6C124.6,53.4,127.5,57,130.2,60.5z M63.5,103.6c-2.8,6.6-6.5,22.2-7.2,30c-0.3,2.4-0.5,5-0.7,5.8l-0.3,1.5H37.5H19.7l0.5-4.6c0.8-9.2,4.2-21.7,8.1-30.3l1.4-3h17.1C60.2,102.8,63.8,103,63.5,103.6z M112.1,121.8v19H88.9c-12.8,0-23.2-0.2-23.2-0.5c0.2-6.4,4.2-24.9,7-32.2c0.6-1.7,1.4-3.6,1.5-4.3c0.4-1,1.9-1.1,19.1-1.1h18.7V121.8z M157.4,106.9c2.5,6.3,5.5,18.2,6.5,26c0.5,3.8,1,7.2,1,7.4c0,0.3-9.5,0.5-21.3,0.5h-21.3v-19v-19h16.7h16.7L157.4,106.9z M181.9,113.7c3.6,5.9,9,14.2,11.9,18.5c2.9,4.3,5.3,8.1,5.3,8.2c0,0.2-5.4,0.3-11.9,0.3c-13.7,0-12.2,0.8-12.9-7.3c-0.6-7.4-4.5-23.6-7.1-29.6c-0.5-1-0.1-1.2,3.9-1l4.4,0.2L181.9,113.7z M213.4,127.7c0.6,3.2,1.2,7.3,1.4,9.3l0.4,3.7h-7.4c-4.1,0-7.5-0.1-7.5-0.3c0-0.4,11.7-18.4,11.9-18.4C212.4,122.1,212.9,124.6,213.4,127.7z M55.4,151.8c0,6.3,3,22.8,5.7,31.6l1.9,5.8H46.3H29.6l-1.2-2.5c-3.5-7-7.5-21.5-8.2-30.8l-0.4-4.8h17.8C49.4,151.1,55.4,151.3,55.4,151.8z M112.1,170.1v19L93,189l-19.1-0.2l-1.2-3.2c-3.1-7.8-7-26.4-7-33.1v-1.4h23.2h23.2V170.1z M164.9,152.8c-0.1,6.6-3.9,24.7-7,32.7l-1.2,3.2l-17.1,0.2l-17.1,0.1v-19v-19h21.3h21.3V152.8L164.9,152.8z M214.9,154.8c-1.2,10.7-3.6,20.4-7.1,28.7l-2.4,5.7h-18.9h-18.9l1.2-3.5c2.8-8.1,4.8-18.3,6.1-30.8l0.4-3.7h20h20L214.9,154.8z M70.8,206.3c4.1,8,12.8,21.5,18.4,28.5c5.4,6.8,5.3,6.6,1.4,5.4c-16.8-5-32.3-14.4-44.1-26.9c-3.2-3.4-7-7.9-8.5-10l-2.8-4h16h16L70.8,206.3z M112.1,221.7c0,18.3-0.1,22.2-0.9,22.2c-1.6,0-13.6-14.4-21.1-25.5c-5-7.3-10.8-17.2-10.8-18.4c0-0.5,5.5-0.6,16.4-0.6h16.4V221.7z M151.4,200c0,1-5.8,11-9.7,16.8c-4,5.9-12.2,16.6-16.6,21.6l-2.8,3.1v-21.1v-21h14.5C144.9,199.4,151.4,199.7,151.4,200z M199.1,199.8c0,0.2-0.8,1.4-1.7,2.7c-11.8,16-26.2,27.3-44,34.5c-4.7,1.9-15.9,5.1-16.8,4.8c-0.3-0.1,1.5-2.8,4-6c6.3-8,15-21.3,19.2-29.5l3.5-6.9h17.9C191,199.4,199.1,199.6,199.1,199.8z"/><path fill="#000000" d="M192.2,23.6c-10.1,3.2-16.6,12.4-16.6,23.1c0.1,9.4,5.1,17.2,13.7,21.4c3.9,1.9,4.8,2.1,10.4,2.1c5.7,0,6.5-0.2,10.4-2.1c4.8-2.4,9.2-6.7,11.5-11.5c2.3-4.6,2.6-13.4,0.7-18.3c-2.8-7.4-8.1-12.4-15.5-14.8C201.8,21.9,197.3,21.9,192.2,23.6z M204.7,33.5c5.8,2.4,9.7,9,8.8,15c-0.6,3.9-3.8,8.4-7.3,10.3c-2.4,1.3-3.6,1.5-7.2,1.3c-3.5-0.2-4.8-0.6-7.1-2.2c-6.1-4.3-7.9-12.4-4.1-18.6C191.3,33.6,198.7,31.1,204.7,33.5z"/></g></g></g>
</svg>